# xmcd
#
# Track frame offsets:
# 150
# 12144
# 27629
# 41731
# 55868
# 69811
# 82584
# 96509
# 111663
# 126255
# 139334
# 150540
# 168076
# 182427
# 200183
# 216546
# 234862
# 248012
#
# Disc length: 3516 seconds
#
#
# Revision: 0
# Processed by: cddbd v1.5.2PL0 Copyright (c) Steve Scherf et al.
# Submitted via: FreeRIP 2.951 
#
DISCID=f70dba12
DTITLE=Rodeio Nacional - Rodeio Nacional
DYEAR=1900
DGENRE=Country
TTITLE0=Hugo and Thiago - Oito segundos
TTITLE1=Bruno e Marrone - Que pescar que nada
TTITLE2=Rio Negro and Solimões - Ajeita o trem ai
TTITLE3=Edson and Hudson - Galera coracao
TTITLE4=Sergio Paulo e Luizinho - Me da, me da
TTITLE5=Joao Victor e Vinicius - O Chao Balanca
TTITLE6=Kid and Tonhao - Poeira subiu
TTITLE7=Teodoro and Sampaio - Cowboy conquistador
TTITLE8=Gino e Geno - A galera do chapeu
TTITLE9=Banda colorado - Explode coracao
TTITLE10=Roniel e Rafael - Reza pra nois
TTITLE11=Chitaozinho and Xororo - Aqui o sistema e bruto
TTITLE12=Ferdinando and Forasteiro - Vou ligeiro
TTITLE13=Grupo Tradicao - Brasileira
TTITLE14=Guilherme and Santiago - Alo, meu povo
TTITLE15=Rick and Renner - Bebedeira
TTITLE16=Thulio e Thiago - Aparpa
TTITLE17=Sergio Paulo e Luizinho - O bicho vai pegar
EXTD=
EXTT0=
EXTT1=
EXTT2=
EXTT3=
EXTT4=
EXTT5=
EXTT6=
EXTT7=
EXTT8=
EXTT9=
EXTT10=
EXTT11=
EXTT12=
EXTT13=
EXTT14=
EXTT15=
EXTT16=
EXTT17=
PLAYORDER=
